<svg version="1.1" xmlns="http://www.w3.org/2000/svg" xmlns:xlink="http://www.w3.org/1999/xlink" width="75.52967" height="87.59008" viewBox="0,0,75.52967,87.59008"><defs><linearGradient x1="239.69516" y1="143.87492" x2="239.69516" y2="216.12508" gradientUnits="userSpaceOnUse" id="color-1"><stop offset="0" stop-color="#ffffff"/><stop offset="1" stop-color="#b7b7b7"/></linearGradient></defs><g transform="translate(-202.23516,-130.535)"><g data-paper-data="{&quot;isPaintingLayer&quot;:true}" fill-rule="nonzero" stroke-linecap="butt" stroke-linejoin="miter" stroke-miterlimit="10" stroke-dasharray="" stroke-dashoffset="0" style="mix-blend-mode: normal"><path d="M268.19617,209.8559c-6.41534,5.8311 -17.51174,6.26919 -28.03646,6.26919c-10.79013,0 -21.03896,-1.02034 -27.71426,-6.23099c-5.28161,-4.12275 -8.21028,-11.56396 -8.21028,-18.33421c0,-7.214 3.25064,-19.33398 11.5547,-24.30456c0.15868,-0.17118 0.36038,-0.26448 0.36038,-0.26448l-0.82392,-6.08795c0,0 -6.08964,-0.14472 -7.57882,-6.01574c-1.70319,-6.71477 3.18825,-9.66801 6.63479,-10.64434c3.07412,-0.87083 8.02417,-0.54946 10.26253,4.92779c1.64273,4.90585 -1.42391,8.61432 -1.42391,8.61432l2.28795,4.19171c0,0 0.34713,-0.1623 0.52451,-0.24131c5.23015,-2.32966 7.15085,-2.65127 14.35256,-3.00437c8.22012,0.36457 9.01864,0.34294 14.59064,3.36983c0.14924,0.08107 0.44545,0.24624 0.44545,0.24624l2.18556,-3.18511c0,0 -4.14069,-3.99406 -0.51503,-9.3736c3.36541,-4.9934 7.69238,-4.83511 10.48909,-3.43953c4.2364,2.114 6.92416,5.36793 4.86819,11.56655c-1.6139,4.8658 -6.53964,4.69079 -6.53964,4.69079l-1.00168,5.58488c0,0 0.01178,0.00789 0.13901,0.15215c5.3379,3.35807 9.27738,12.02157 10.25318,18.464c1.99597,13.17788 -2.83316,19.16636 -7.10453,23.04874z" fill="url(#color-1)" stroke="#000000" stroke-width="4"/><path d="M262.74593,137.43665c0,2.15482 -10.1837,3.90164 -22.74593,3.90164c-12.56223,0 -22.74592,-1.74683 -22.74592,-3.90164c0,-0.80264 1.18436,-1.94885 3.6069,-2.56909c4.08113,-1.04487 11.25608,-1.33256 19.13903,-1.33256c7.21457,0 13.64463,0.17599 17.81173,1.07469c3.08877,0.66615 4.9342,1.90967 4.9342,2.82696z" fill="none" stroke="#ffee00" stroke-width="6"/></g></g></svg>