<svg version="1.1" xmlns="http://www.w3.org/2000/svg" xmlns:xlink="http://www.w3.org/1999/xlink" width="72.17131" height="73.64888" viewBox="0,0,72.17131,73.64888"><g transform="translate(-203.91434,-141.57115)"><g data-paper-data="{&quot;isPaintingLayer&quot;:true}" fill-rule="nonzero" stroke-linecap="butt" stroke-linejoin="miter" stroke-miterlimit="10" stroke-dasharray="" stroke-dashoffset="0" style="mix-blend-mode: normal"><path d="M204.28913,155.31282c-1.2834,-4.34705 1.20018,-8.91143 5.54723,-10.19483c4.34705,-1.2834 8.91144,1.20018 10.19484,5.54723c1.2834,4.34705 -1.20018,8.91144 -5.54723,10.19484c-4.34705,1.2834 -8.91143,-1.20018 -10.19483,-5.54723z" fill="#ffffff" stroke="none" stroke-width="0"/><path d="M214.82803,177.87745l-3.29479,-17.90983l6.17613,-2.07853l7.46599,15.65056z" fill="#ffffff" stroke="none" stroke-width="0"/><path d="M265.5528,162.31311c-4.34705,-1.2834 -6.83063,-5.84779 -5.54723,-10.19484c1.2834,-4.34705 5.84778,-6.83063 10.19483,-5.54723c4.34705,1.2834 6.83063,5.84778 5.54723,10.19483c-1.2834,4.34705 -5.84778,6.83064 -10.19484,5.54724z" data-paper-data="{&quot;index&quot;:null}" fill="#ffffff" stroke="none" stroke-width="0"/><path d="M255.06141,174.9927l7.46599,-15.65056l6.17613,2.07853l-3.29479,17.90983z" data-paper-data="{&quot;index&quot;:null}" fill="#ffffff" stroke="none" stroke-width="0"/><path d="M274.83435,189.06142c0,6.98073 -1.70165,14.68732 -7.06735,19.56437c-6.41534,5.8311 -17.40339,6.59425 -27.92811,6.59425c-10.79013,0 -21.03896,-1.02034 -27.71426,-6.23099c-5.28161,-4.12275 -8.21028,-11.56396 -8.21028,-18.33421c0,-10.11903 6.20992,-22.42556 16.41283,-27.27434c5.25116,-2.49553 12.94441,-3.66452 19.51171,-3.66452c8.69042,0 16.33129,2.24648 22.45033,6.40488c7.48969,5.08986 12.54513,14.50521 12.54513,22.94057z" fill="#ffffff" stroke="none" stroke-width="0"/><path d="M259.90837,148.07749c0,2.35071 -8.91328,4.25634 -19.90837,4.25634c-10.99509,0 -19.90837,-1.90563 -19.90837,-4.25634c0,-0.87561 1.03661,-2.12601 3.15694,-2.80264c3.57201,-1.13986 9.85188,-1.4537 16.75143,-1.4537c6.31455,0 11.94246,0.19198 15.58971,1.17238c2.70345,0.7267 4.31866,2.08328 4.31866,3.08396z" fill="none" stroke="#ffee00" stroke-width="4.5"/></g></g></svg>